<svg xmlns="http://www.w3.org/2000/svg" width="50" height="50" viewBox="0 0 50 50">
  <defs>
    <linearGradient id="a" x1="-21.89%" y1="65.704%" y2="50%">
      <stop stop-color="#2C66BE" offset="0%"/>
      <stop stop-color="#143689" offset="100%"/>
    </linearGradient>
    <linearGradient id="b" x1="-16.831%" y1="37.803%" y2="37.803%">
      <stop stop-color="#418EEA" offset="0%"/>
      <stop stop-color="#1F55D0" offset="100%"/>
    </linearGradient>
    <linearGradient id="c" x1="-17.815%" y1="50%" y2="50%">
      <stop stop-color="#5CE6FF" offset="0%"/>
      <stop stop-color="#2FC8FF" offset="100%"/>
    </linearGradient>
  </defs>
  <g fill="none" fill-rule="evenodd">
    <path fill="url(#a)" d="M21.8976768,23.6174751 C23.6110426,22.7950596 26.3852725,22.7932908 28.1023232,23.6174751 L48.7135935,33.5108849 C50.4269592,34.3333005 50.4306441,35.6649308 48.7135935,36.4891151 L28.1023232,46.3825249 C26.3889574,47.2049404 23.6147275,47.2067092 21.8976768,46.3825249 L1.28640654,36.4891151 C-0.426959229,35.6666995 -0.430644144,34.3350692 1.28640654,33.5108849 L21.8976768,23.6174751 Z"/>
    <path fill="url(#b)" d="M21.8976768,13.6174751 C23.6110426,12.7950596 26.3852725,12.7932908 28.1023232,13.6174751 L48.7135935,23.5108849 C50.4269592,24.3333005 50.4306441,25.6649308 48.7135935,26.4891151 L28.1023232,36.3825249 C26.3889574,37.2049404 23.6147275,37.2067092 21.8976768,36.3825249 L1.28640654,26.4891151 C-0.426959229,25.6666995 -0.430644144,24.3350692 1.28640654,23.5108849 L21.8976768,13.6174751 Z"/>
    <path fill="url(#c)" d="M21.8976768,3.61747514 C23.6110426,2.79505957 26.3852725,2.79329081 28.1023232,3.61747514 L48.7135935,13.5108849 C50.4269592,14.3333005 50.4306441,15.6649308 48.7135935,16.4891151 L28.1023232,26.3825249 C26.3889574,27.2049404 23.6147275,27.2067092 21.8976768,26.3825249 L1.28640654,16.4891151 C-0.426959229,15.6666995 -0.430644144,14.3350692 1.28640654,13.5108849 L21.8976768,3.61747514 Z"/>
  </g>
</svg>
