<svg xmlns="http://www.w3.org/2000/svg" width="50" height="50" viewBox="0 0 50 50">
  <defs>
    <linearGradient id="a" x1="10.707%" x2="82.694%" y1="80.166%" y2="0%">
      <stop stop-color="#4A7BF1" offset="0%"/>
      <stop stop-color="#1B50CF" offset="100%"/>
    </linearGradient>
    <linearGradient id="b" x1="-16.831%" y1="37.803%" y2="37.803%">
      <stop stop-color="#418EEA" offset="0%"/>
      <stop stop-color="#1F55D0" offset="100%"/>
    </linearGradient>
  </defs>
  <g fill="none" fill-rule="evenodd">
    <path fill="url(#a)" d="M40.552,31 C37.491,31 35,33.49 35,36.552 C35,39.613 37.491,42.104 40.552,42.104 C43.613,42.104 46.103,39.613 46.103,36.552 C46.103,33.49 43.613,31 40.552,31 M40.552,46.104 C35.285,46.104 31,41.818 31,36.552 C31,31.285 35.285,27 40.552,27 C45.819,27 50.103,31.285 50.103,36.552 C50.103,41.818 45.819,46.104 40.552,46.104"/>
    <path fill="url(#b)" d="M21,24 L0,24 L0,29.9057808 C0,34.1942737 1.7348646,38.2926165 4.79568978,41.2348868 L9.84942578,46.0938302 L9.84942578,49.2211935 C9.84942578,49.6510542 10.1918333,50 10.6136396,50 L21,50 L31.3863604,50 C31.8081667,50 32.1505742,49.6510542 32.1505742,49.2211935 L32.1505742,46.0938302 L37.2043102,41.2348868 C40.2651354,38.2926165 42,34.1942737 42,29.9057808 L42,24 L21,24 Z"/>
    <path fill="#2DC7FF" d="M37.9020275 18L4.09797249 18C1.83510563 18 0 19.8857726 0 22.2111168L0 24 42 24 42 22.2111168C42 19.8857726 40.1648944 18 37.9020275 18M25.5410908 12.1131396L25.5410908 9.85553086C25.5410908 9.46944984 25.81253 9.15286341 26.1846798 9.05827356 27.5725683 8.70500943 28.5240441 7.23404075 28.0329598 5.65593459 27.7902952 4.87605093 27.1620526 4.24094765 26.3870602 3.99482101 24.5905742 3.4234211 22.9312465 4.75733102 22.9187775 6.47925236 22.8995945 8.99457019 21.6114575 11.3593164 19.3248463 12.3727791 14.5952827 14.4672686 10 11.0128087 10 6.49952161 10 3.2332762 12.4084231.521057045 15.5314121.0664466463 16.0215373-.00497834204 16.4598683.388824296 16.4598683.885903607L16.4598683 3.14351236C16.4598683 3.52959338 16.1884292 3.84617981 15.8162794 3.94076966 14.4283908 4.29403379 13.4778742 5.76403727 13.9670402 7.34117823 14.2097048 8.12106189 14.8379474 8.75713036 15.6119806 9.00422221 17.4084667 9.57755253 19.0697127 8.2417122 19.0821816 6.51882566 19.0994463 4.00447303 20.3885425 1.6397268 22.6761128.627229325 27.4056764-1.4672602 32 1.98719971 32 6.49952161 32 9.76673223 29.5925361 12.4789514 26.4685879 12.9325966 25.9794219 13.0040216 25.5410908 12.6102189 25.5410908 12.1131396"/>
  </g>
</svg>
