<svg xmlns="http://www.w3.org/2000/svg" width="50" height="50" viewBox="0 0 50 50">
  <defs>
    <linearGradient id="a" x1="-17.815%" y1="50%" y2="50%">
      <stop stop-color="#5CE6FF" offset="0%"/>
      <stop stop-color="#2FC8FF" offset="100%"/>
    </linearGradient>
    <linearGradient id="b" x1="10.707%" x2="82.694%" y1="80.166%" y2="0%">
      <stop stop-color="#4A7BF1" offset="0%"/>
      <stop stop-color="#1B50CF" offset="100%"/>
    </linearGradient>
  </defs>
  <g fill="none" fill-rule="evenodd">
    <path fill="url(#a)" d="M11.5724587,17.6791267 C8.83225545,23.2154938 8.08464646,27.7144947 8.00329507,32.395418 C7.82823512,42.4307859 15.9221837,50.7450459 26.0169646,50.146133 C34.9450224,49.6167185 42.4736302,42.2703263 41.9772838,33.313206 C41.2935202,19.9347594 29.1937879,21.4586145 25.5257669,0.919786256 C25.3795404,0.0990916344 24.2344423,-0.0726103537 23.6876374,0.559007674 C20.6776359,4.038017 18.2309156,7.14091721 16.2465595,9.96275762"/>
    <path fill="url(#b)" d="M36.5377395,45.83344 C36.2979305,46.0365981 36.0517652,46.2332835 35.7995259,46.4232205 C32.9154314,48.1155365 28.0243372,44.9301809 25.2248565,42.6890884 C22.6606436,40.6350092 15.7976335,33.4835433 14.5449356,28.3187093 C13.2963651,23.1671603 13.4769435,21.2081206 14.7874265,16.0708787 C15.6129277,12.8354484 16.9027732,9.40891724 18.8437327,6.45349579 L18.8676229,6.42077922 C20.2870144,4.58795232 21.8864782,2.64081713 23.6876374,0.559007674 C24.2344423,-0.0726103537 25.3795404,0.0990916344 25.5257669,0.919786256 C29.1937879,21.4586145 41.2935202,19.9347594 41.9772838,33.313206 C42.2523132,38.2764153 40.063398,42.7450742 36.5377395,45.83344 L36.5377395,45.83344 Z"/>
  </g>
</svg>
