<?xml version="1.0" encoding="UTF-8"?>
<svg width="50px" height="50px" viewBox="0 0 50 50" version="1.1" xmlns="http://www.w3.org/2000/svg" xmlns:xlink="http://www.w3.org/1999/xlink">
    <!-- Generator: Sketch 48.1 (47250) - http://www.bohemiancoding.com/sketch -->
    <title>Tech Icons / HTML5</title>
    <desc>Created with Sketch.</desc>
    <defs>
        <linearGradient x1="100%" y1="37.8025224%" x2="-16.831404%" y2="37.8025234%" id="linearGradient-1">
            <stop stop-color="#428EEA" offset="0%"></stop>
            <stop stop-color="#1F55D0" offset="100%"></stop>
        </linearGradient>
        <linearGradient x1="100%" y1="50%" x2="-17.8153842%" y2="50%" id="linearGradient-2">
            <stop stop-color="#5CE6FF" offset="0%"></stop>
            <stop stop-color="#2FC8FF" offset="100%"></stop>
        </linearGradient>
    </defs>
    <g id="Symbols" stroke="none" stroke-width="1" fill="none" fill-rule="evenodd">
        <g id="Tech-Icons-/-HTML5" fill-rule="nonzero">
            <path d="M6.87953616,43.6372287 L3.09677719,1.088555 C3.04786962,0.538440013 3.4541785,0.0528362845 4.00429349,0.00392871099 C4.03373924,0.00131085783 4.06328659,2.27475036e-16 4.09284848,2.22044605e-16 L45.9070992,-6.66133815e-16 C46.459384,3.15663229e-15 46.9070992,0.44771525 46.9070992,1 C46.9070992,1.02957778 46.905787,1.05914101 46.9031663,1.08860246 L43.1204955,43.6133101 C43.0466793,44.4431506 42.4661792,45.1403139 41.6634307,45.3632016 L25.2310409,49.925748 C25.0560649,49.9743311 24.8711623,49.9743507 24.696176,49.9258048 L8.33701819,45.3873286 C7.53403923,45.1645604 6.95332968,44.4672621 6.87953616,43.6372287 Z" id="Shape" fill="url(#linearGradient-1)"></path>
            <path d="M25,47 L25,4 L41.9077541,4 C42.4600388,4 42.9077541,4.44771525 42.9077541,5 C42.9077541,5.02937868 42.9064594,5.05874308 42.9038739,5.08800777 L39.6863839,41.5053104 C39.6133424,42.3320339 39.0373029,43.0277447 38.2387174,43.2537273 L25,47 Z" id="Shape" fill="url(#linearGradient-2)"></path>
            <path d="M25,9 L39,9 L38.5688229,13.5681055 C38.5203451,14.0817034 38.0891286,14.4741346 37.5732479,14.4741346 L25,14.4741346 L25,14.4698795 L17.1157895,14.4698795 L17.6315789,20.0722892 L25,20.0722892 L25,20.0809024 L36.8832439,20.0809024 C36.9136612,20.0809024 36.9440626,20.0822902 36.9743534,20.0850615 C37.5243411,20.1353798 37.9294032,20.6220241 37.8790848,21.1720118 L36.5044021,36.1975165 C36.4663552,36.6133752 36.1739018,36.9618063 35.7709363,37.071373 L25,40 L14.223079,37.0504833 C13.820885,36.9404075 13.5292114,36.5923193 13.4912185,36.1770684 L12.7684211,28.2771084 L18.3684211,28.2771084 L18.7614035,32.6506024 L25,34.2891566 L25,34.3088292 L31.2372583,32.6690004 L31.8892794,25.555037 L25,25.555037 L25,25.5301205 L13.4349182,25.5301205 C12.9181767,25.5301205 12.4865379,25.1364179 12.4391347,24.6218552 L11.1005741,10.0917347 C11.0499104,9.5417787 11.4546668,9.05488021 12.0046228,9.00421652 C12.0351204,9.00140699 12.0657309,9 12.0963575,9 L25,9 Z" id="Combined-Shape" fill="#FFFFFF"></path>
        </g>
    </g>
</svg>