<svg xmlns="http://www.w3.org/2000/svg" width="50" height="50" viewBox="0 0 50 50">
  <defs>
    <linearGradient id="a" x1="-16.831%" y1="37.803%" y2="37.803%">
      <stop stop-color="#418EEA" offset="0%"/>
      <stop stop-color="#1F55D0" offset="100%"/>
    </linearGradient>
  </defs>
  <g fill="none" fill-rule="evenodd">
    <path fill="url(#a)" d="M43.1812652,18.685193 L33.1113139,17.009941 C32.8487429,16.9669596 32.5831306,17.0652028 32.4097729,17.2688529 L25.5778589,25.3401496 C25.2747364,25.6983281 24.7262774,25.6983281 24.4231549,25.3401496 L17.5912409,17.2688529 C17.4178832,17.0652028 17.1522709,16.9669596 16.8896999,17.009941 L6.81974858,18.685193 C6.49939173,18.7384081 6.24797242,18.9891331 6.19424169,19.3114937 C5.89922952,21.0788488 5,26.9447893 5,32.9294404 C5,41.1266112 6.01987024,46.6241396 6.37672344,48.2973449 C6.44566099,48.6207289 6.71025953,48.8591734 7.03568532,48.8949913 L16.8025142,49.995111 C17.3205596,50.0534429 17.7341849,49.5806473 17.6246959,49.0658936 C16.1131387,41.9995434 16.2074209,34.441977 16.2743309,32.2417377 C16.2814274,32.0135268 16.5571776,31.9111901 16.708232,32.0820924 C17.8000811,33.3224134 20.9499189,36.7373895 24.5731955,39.2108679 C24.8296837,39.3858637 25.1713301,39.3858637 25.4278183,39.2108679 C29.0510949,36.7373895 32.2009327,33.3224134 33.2927818,32.0820924 C33.4438362,31.9111901 33.7195864,32.0135268 33.7256691,32.2417377 C33.7925791,34.441977 33.8878751,41.9995434 32.3763179,49.0658936 C32.2668289,49.5806473 32.6804542,50.0534429 33.1984996,49.995111 L42.9653285,48.8949913 C43.2907543,48.8591734 43.554339,48.6207289 43.6232766,48.2973449 C43.9801298,46.6241396 45,41.1266112 45,32.9294404 C45,26.9447893 44.1017843,21.0788488 43.8067721,19.3114937 C43.7520276,18.9891331 43.5006083,18.7384081 43.1812652,18.685193"/>
    <path fill="#2DC7FF" d="M25,8.85088592 L33.2646666,11.9500021 C33.4146005,12.0062353 33.5779767,12.0154371 33.7320467,11.9755626 L34.5768467,11.7588091 C34.9170415,11.6719032 35.1548677,11.3672214 35.1548677,11.0195978 L35.1548677,10.1065747 C35.1548677,9.80393767 34.973913,9.52992849 34.6926577,9.40826024 L29.5102626,7.15961047 L38.501599,3.78800488 C38.8014668,3.67553843 39,3.39130503 39,3.07435412 L39,1.39451429 C39,1.12561723 38.8562703,0.876146187 38.6225802,0.738119178 L37.5471922,0.107284621 C37.3331487,-0.0184733208 37.0705059,-0.0348320775 36.8419859,0.0643428851 L25,5.2026001 L13.1580141,0.0643428851 C12.9294941,-0.0348320775 12.6668513,-0.0184733208 12.4528078,0.107284621 L11.3774198,0.738119178 C11.1437297,0.876146187 11,1.12561723 11,1.39451429 L11,3.07435412 C11,3.39130503 11.1985332,3.67553843 11.498401,3.78800488 L20.4897374,7.15961047 L15.3073423,9.40826024 C15.026087,9.52992849 14.8451323,9.80393767 14.8451323,10.1065747 L14.8451323,11.0195978 C14.8451323,11.3672214 15.0829585,11.6719032 15.4231533,11.7588091 L16.2679533,11.9755626 C16.4220233,12.0154371 16.5853995,12.0062353 16.7353334,11.9500021 L25,8.85088592 L25,8.85088592 Z"/>
  </g>
</svg>
