<svg xmlns="http://www.w3.org/2000/svg" width="50" height="50" viewBox="0 0 50 50">
  <defs>
    <linearGradient id="a" x1="-17.815%" y1="50%" y2="50%">
      <stop stop-color="#5CE6FF" offset="0%"/>
      <stop stop-color="#2FC8FF" offset="100%"/>
    </linearGradient>
    <linearGradient id="b" x1="-16.831%" y1="37.803%" y2="37.803%">
      <stop stop-color="#418EEA" offset="0%"/>
      <stop stop-color="#1F55D0" offset="100%"/>
    </linearGradient>
  </defs>
  <g fill="none" fill-rule="evenodd">
    <path fill="url(#a)" d="M49.0456211 27.9846101L49.0456211 27.9846101C47.6480908 29.3822491 45.298868 29.3299146 43.9709999 27.8717317L24.183728 6.1344434C23.6157134 5.51053407 24.4848829 4.64137091 25.1600701 5.15650657L48.7058841 23.1359726C50.2856078 24.3417184 50.4431515 26.5869711 49.0456211 27.9846101M28.9580414 49.0696845L28.9580414 49.0696845C27.4896501 50.3995933 25.0898167 50.289269 23.7748394 48.8309829L4.17510375 27.0940949C3.61295099 26.4712643 4.52576435 25.6438324 5.200786 26.1643623L28.7498367 44.3237354C30.330001 45.542317 30.4264326 47.7397757 28.9580414 49.0696845"/>
    <path fill="url(#b)" d="M48.1485839,48.1485839 L48.1485839,48.1485839 C45.5209187,50.776249 41.2034766,50.5812314 38.8226834,47.7269851 L0.210321815,1.42326378 C-0.460403528,0.617266098 0.617266098,-0.460403528 1.42326378,0.210321815 L47.7269851,38.8226834 C50.5812314,41.2034766 50.776249,45.5209187 48.1485839,48.1485839"/>
  </g>
</svg>
