<svg xmlns="http://www.w3.org/2000/svg" width="50" height="50" viewBox="0 0 50 50">
  <defs>
    <linearGradient id="a" x1="10.707%" x2="82.694%" y1="80.166%" y2="0%">
      <stop stop-color="#4A7BF1" offset="0%"/>
      <stop stop-color="#1B50CF" offset="100%"/>
    </linearGradient>
    <linearGradient id="b" x1="41.092%" x2="41.092%" y1="-8.908%" y2="108.908%">
      <stop stop-color="#5CE6FF" offset="0%"/>
      <stop stop-color="#2FC8FF" offset="100%"/>
    </linearGradient>
    <linearGradient id="c" x1="-17.815%" y1="50%" y2="50%">
      <stop stop-color="#5CE6FF" offset="0%"/>
      <stop stop-color="#2FC8FF" offset="100%"/>
    </linearGradient>
    <linearGradient id="d" x1="100%" x2="-17.815%" y1="50%" y2="50%">
      <stop stop-color="#5CE6FF" offset="0%"/>
      <stop stop-color="#2FC8FF" offset="100%"/>
    </linearGradient>
  </defs>
  <g fill="none" fill-rule="evenodd">
    <path fill="url(#a)" d="M7.76465395,46.0732426 L4.97705057,49.5474578 C4.74322431,49.8387617 4.43806124,50 4.12100869,50 L0.423383334,50 C0.0389571187,50 -0.145725991,49.3593465 0.136450778,49.0046222 L14.9428048,30.4686673 C15.1750458,30.1773635 15.4802089,30.0150503 15.7972614,30.0139753 L19.5757352,30.0000013 C19.960954,29.9989264 20.1464298,30.6417298 19.8626677,30.9953791 L16.7106679,34.9237448 L33.2790252,34.9237448 L30.1367375,30.9953791 C29.8538649,30.6417298 30.0387593,29.9989264 30.4235609,30.0000013 L34.1909817,30.0139753 C34.5062504,30.0150503 34.8088767,30.1762886 35.0411799,30.4665175 L49.8627571,49.0046222 C50.1456298,49.3582716 49.9615255,50 49.5775141,50 L45.8290567,50 C45.512998,50 45.2087914,49.8387617 44.9764881,49.5474578 L42.1974741,46.0732426 L7.76465395,46.0732426 L7.76465395,46.0732426 Z M10.9936941,42.0488608 L13.4816278,38.9481267 L36.4981158,38.9481267 L38.9783835,42.0488608 L10.9936941,42.0488608 L10.9936941,42.0488608 Z"/>
    <path fill="url(#b)" d="M43.7373377,10.9050937 L35.9568663,1.31560277 C35.8008002,1.12379981 35.5932317,1.01589992 35.3784369,1.01561632 L26.026899,1.00866052 L16.6755966,1 C16.4598513,1.00044972 16.2523392,1.10724895 16.095133,1.29859785 L8.26671186,10.8749469 C7.92428167,11.2944916 7.90978107,11.9955971 8.23364623,12.4356395 L25.3310518,35.6621953 C25.6620663,36.1119517 26.2155855,36.112851 26.5494115,35.6633929 L43.7627882,12.4663287 C44.0885394,12.0261466 44.0775879,11.3248794 43.7373377,10.9050937 Z" transform="rotate(-53.3 26 18.5)"/>
    <path fill="url(#c)" d="M17.1387762,5.83610509 L25.3818736,16.8269016 L7.38187361,16.8269016 L15.625922,5.83483708 L16.4087726,5.8355621 L17.1387762,5.83610509 Z" transform="rotate(-53.3 16.382 11.33)"/>
    <path fill="url(#d)" d="M12.410435,9.80244898 L21.3734764,9.80244898 L29.9818606,33.7146274 C29.8803747,33.6583409 29.7857528,33.5750058 29.7045282,33.4646443 L12.6071226,10.2380885 C12.513168,10.1104304 12.4476904,9.96080112 12.410435,9.80244898 Z M48.3419008,9.80244898 L39.3734764,9.80244898 L30.8080579,33.5952782 C30.8485106,33.5573449 30.8869708,33.5142 30.9228879,33.4658419 L48.1362646,10.2687776 C48.2368233,10.1328944 48.3052961,9.97213128 48.3419008,9.80244898 Z" transform="rotate(-53.3 30.376 21.759)"/>
  </g>
</svg>
