<svg xmlns="http://www.w3.org/2000/svg" width="60" height="60" viewBox="0 0 60 60" xmlns:xlink="http://www.w3.org/1999/xlink">
  <defs>
    <linearGradient id="b" x1="0%" y1="0%" y2="100%">
      <stop stop-color="#458DEA" offset="0%"/>
      <stop stop-color="#2154CF" offset="100%"/>
    </linearGradient>
    <linearGradient id="c" x1="-21.89%" y1="65.704%" y2="50%">
      <stop stop-color="#2C66BE" offset="0%"/>
      <stop stop-color="#143689" offset="100%"/>
    </linearGradient>
    <rect id="a" width="8" height="10" x="26" y="21" rx="1.6"/>
    <mask id="d" width="8" height="10" x="0" y="0" fill="white">
      <use xlink:href="#a"/>
    </mask>
    <linearGradient id="e" x1="-17.815%" y1="50%" y2="50%">
      <stop stop-color="#5CE6FF" offset="0%"/>
      <stop stop-color="#2FC8FF" offset="100%"/>
    </linearGradient>
  </defs>
  <g fill="none" fill-rule="evenodd" transform="translate(0 6)">
    <rect width="60" height="48" fill="url(#b)" rx="3"/>
    <path fill="url(#c)" d="M60,13 L60,3.54980509 C60,1.59527287 58.4494509,0 56.5367517,0 L3.46324835,0 C1.54344946,0 0,1.58930187 0,3.54980509 L0,13 L60,13 Z"/>
    <circle cx="4.5" cy="6.5" r="1.5" fill="#2FC8FF"/>
    <circle cx="10.5" cy="6.5" r="1.5" fill="#2FC8FF"/>
    <circle cx="16.5" cy="6.5" r="1.5" fill="#2FC8FF"/>
    <use stroke="#42D5FF" stroke-width="3.2" mask="url(#d)" xlink:href="#a"/>
    <rect width="18" height="13" x="21" y="25" fill="url(#e)" rx=".4"/>
  </g>
</svg>
