<svg xmlns="http://www.w3.org/2000/svg" width="60" height="60" viewBox="0 0 60 60">
  <defs>
    <linearGradient id="a" x1="0%" x2="50%" y1="0%" y2="100%">
      <stop stop-color="#2C66BE" offset="0%"/>
      <stop stop-color="#143689" offset="100%"/>
    </linearGradient>
    <linearGradient id="b" x1="11.874%" y1="13.791%" y2="145.517%">
      <stop stop-color="#4B7CF2" offset="0%"/>
      <stop stop-color="#4879F0" offset="2.519%"/>
      <stop stop-color="#1B50CF" offset="100%"/>
    </linearGradient>
    <linearGradient id="c" x1="-17.815%" y1="50%" y2="50%">
      <stop stop-color="#5CE6FF" offset="0%"/>
      <stop stop-color="#2FC8FF" offset="100%"/>
    </linearGradient>
  </defs>
  <g fill="none" fill-rule="evenodd">
    <path fill="url(#a)" d="M22.4102717,49.5432224 L36.5143272,59.5886977 C37.5043824,60.2938548 38.8974994,60.0682242 39.617407,59.0962599 L42.3090473,55.4622122 C45.8362079,51.9082062 42.0704125,39.8440867 43.3177891,34.3801808 C44.6510195,28.5374977 63.238702,7.23287659 59.5055408,1.28797984 C59.4051323,1.12562889 59.3184551,1.00159539 59.1726701,0.854757578 C59.0268852,0.707919766 58.8887538,0.605521127 58.7289235,0.504393371 C52.8306869,-3.26390879 31.4847246,15.2747557 25.6825782,16.6176087 C20.2571683,17.8733077 8.02749292,13.8264373 4.49965103,17.3797572 L0.8916602,20.0908365 C-0.0784566487,20.8197917 -0.293042146,22.2048729 0.42650022,23.2041251 L10.9913171,37.8758336 C10.9713538,37.9645568 22.4102717,49.5432224 22.4102717,49.5432224 Z"/>
    <path fill="#2DC6FE" d="M-3.11750625e-13,60 C-3.11750625e-13,60 8.12739973,59.341756 10.3044707,57.164685 C12.4815417,54.987614 12.574379,51.5507218 10.5118286,49.4881714 C8.44927817,47.425621 5.01238598,47.5184583 2.83531501,49.6955293 C0.658244026,51.8726003 -3.11750625e-13,60 -3.11750625e-13,60 Z"/>
    <path fill="url(#b)" d="M25.6460995,43.7123667 C26.1368168,43.2180918 56.5375638,12.5903776 58.1788741,9.31084338 C59.8650247,5.94171276 60.5519304,2.95173763 59.4999114,1.27379267 C59.4007657,1.11323002 59.3151787,0.990562758 59.1712273,0.845342374 C59.0272759,0.700121989 58.8908818,0.598851277 58.7330618,0.498837449 C57.0695149,-0.565661207 54.1614904,0.169745355 50.7221292,1.79462731 C47.2827681,3.41950926 16.2229016,34.2182071 16.2229016,34.2182071 C16.2226225,34.2194493 16.2242389,34.2225606 16.2276971,34.2274877 C14.4546306,34.5109939 12.2281881,35.9776459 11.2591596,37.504414 L9.39757473,40.4374634 C8.74762125,41.4615079 8.9127592,42.9762909 9.75997742,43.8309778 L16.1093089,50.2362818 C16.9508508,51.0852423 18.4625787,51.2546523 19.4731692,50.6018793 L22.3805883,48.7238836 C23.8882389,47.7500435 25.3698864,45.5142385 25.6739135,43.7404258 L25.6460996,43.7123666 L25.6460995,43.7123667 Z"/>
    <path fill="url(#c)" d="M47.6490129,6.62460723 C48.0783468,6.19527335 48.8838064,6.01489814 49.4532684,6.22363803 L51.3870028,6.93246069 C51.9541317,7.14034539 52.5815492,7.76628504 52.7902891,8.33574697 L53.4991117,10.2694814 C53.7069964,10.8366103 53.5226782,11.6492013 53.0981425,12.0737369 L52.6272433,12.5446361 C52.1979095,12.97397 51.6836103,12.8631847 51.4766299,12.2919632 L51.0997344,11.2518122 C50.7135837,10.1861185 49.5326473,9.00772252 48.4709376,8.62301531 L47.4307866,8.24611983 C46.8619053,8.03998748 46.753578,7.52004207 47.1781137,7.09550643 L47.6490129,6.62460723 Z"/>
  </g>
</svg>
